<svg width="24" height="24" viewBox="0 0 24 24" fill="none" xmlns="http://www.w3.org/2000/svg">
<path d="M13.0001 7.00011H11.0001V11.0001H7.00011V13.0001H11.0001V17.0001H13.0001V13.0001H17.0001V11.0001H13.0001V7.00011ZM12.7301 2.03011C6.65011 1.59011 1.59011 6.65011 2.03011 12.7301C2.41011 18.0101 7.03011 22.0001 12.3201 22.0001H22.0001V12.3201C22.0001 7.02011 18.0201 2.41011 12.7301 2.03011ZM12.0001 20.0001C7.59011 20.0001 4.00011 16.4101 4.00011 12.0001C4.00011 7.59011 7.59011 4.00011 12.0001 4.00011C16.4101 4.00011 20.0001 7.59011 20.0001 12.0001C20.0001 16.4101 16.4101 20.0001 12.0001 20.0001Z" fill="#8F9CA2"/>
</svg>
